# xmcd
#
# Track frame offsets: 
#        150
#        14156
#        30635
#        44430
#        60580
#        76365
#        90494
#        104841
#        120432
#        135704
#        153440
#        167242
#        182357
#        196312
#
# Disc length: 2784 seconds
#
# Revision: 0
# Processed by: cddbd v1.5.2PL0 Copyright (c) Steve Scherf et al.
# Submitted via: ExactAudioCopy v1.1
#
DISCID=b70ade0e
DTITLE=Niels Destadsbader - Dertig
DYEAR=2018
DGENRE=Pop
TTITLE0=Gloria
TTITLE1=Vergeef Me
TTITLE2=Paradijs
TTITLE3=Niels Destadsbader and Sarah Bettens - Je Bent Me
TTITLE4=Leef
TTITLE5=Tranen Met Tuiten
TTITLE6=Tokio
TTITLE7=Mona Lisa
TTITLE8=Beloof Je Mij
TTITLE9=Jong
TTITLE10=Verover Mij
TTITLE11=Vlinders In Haar Buik
TTITLE12=Elektriciteit
TTITLE13=Ik Ben Van't Stroate
EXTD=
EXTT0=
EXTT1=
EXTT2=
EXTT3=
EXTT4=
EXTT5=
EXTT6=
EXTT7=
EXTT8=
EXTT9=
EXTT10=
EXTT11=
EXTT12=
EXTT13=
PLAYORDER=
